<svg width="152" height="24" viewBox="0 0 152 24" fill="none" xmlns="http://www.w3.org/2000/svg">
<g id="logo">
<path id="green-fl" d="M4.95 8.172C5.586 8.172 6.156 8.292 6.66 8.532C7.176 8.772 7.614 9.138 7.974 9.63H8.064L8.28 8.352H9.54V18.162C9.54 19.542 9.186 20.58 8.478 21.276C7.782 21.972 6.696 22.32 5.22 22.32C3.804 22.32 2.646 22.116 1.746 21.708V20.25C2.694 20.754 3.882 21.006 5.31 21.006C6.138 21.006 6.786 20.76 7.254 20.268C7.734 19.788 7.974 19.128 7.974 18.288V17.91C7.974 17.766 7.98 17.562 7.992 17.298C8.004 17.022 8.016 16.83 8.028 16.722H7.956C7.308 17.694 6.312 18.18 4.968 18.18C3.72 18.18 2.742 17.742 2.034 16.866C1.338 15.99 0.99 14.766 0.99 13.194C0.99 11.658 1.338 10.44 2.034 9.54C2.742 8.628 3.714 8.172 4.95 8.172ZM5.166 9.504C4.362 9.504 3.738 9.828 3.294 10.476C2.85 11.112 2.628 12.024 2.628 13.212C2.628 14.4 2.844 15.312 3.276 15.948C3.72 16.572 4.362 16.884 5.202 16.884C6.174 16.884 6.882 16.626 7.326 16.11C7.77 15.582 7.992 14.736 7.992 13.572V13.194C7.992 11.874 7.764 10.932 7.308 10.368C6.852 9.792 6.138 9.504 5.166 9.504ZM17.1042 8.172C17.2842 8.172 17.4762 8.184 17.6802 8.208C17.8962 8.22 18.0822 8.244 18.2382 8.28L18.0402 9.738C17.8842 9.702 17.7102 9.672 17.5182 9.648C17.3382 9.624 17.1642 9.612 16.9962 9.612C16.5042 9.612 16.0422 9.75 15.6102 10.026C15.1782 10.29 14.8302 10.668 14.5662 11.16C14.3142 11.64 14.1882 12.204 14.1882 12.852V18H12.6042V8.352H13.9002L14.0802 10.116H14.1522C14.4642 9.588 14.8662 9.132 15.3582 8.748C15.8502 8.364 16.4322 8.172 17.1042 8.172ZM23.4142 8.172C24.2422 8.172 24.9502 8.352 25.5382 8.712C26.1382 9.072 26.5942 9.582 26.9062 10.242C27.2302 10.89 27.3922 11.652 27.3922 12.528V13.482H20.7862C20.8102 14.574 21.0862 15.408 21.6142 15.984C22.1542 16.548 22.9042 16.83 23.8642 16.83C24.4762 16.83 25.0162 16.776 25.4842 16.668C25.9642 16.548 26.4562 16.38 26.9602 16.164V17.55C26.4682 17.766 25.9822 17.922 25.5022 18.018C25.0222 18.126 24.4522 18.18 23.7922 18.18C22.8802 18.18 22.0702 17.994 21.3622 17.622C20.6662 17.25 20.1202 16.698 19.7242 15.966C19.3402 15.222 19.1482 14.316 19.1482 13.248C19.1482 12.192 19.3222 11.286 19.6702 10.53C20.0302 9.774 20.5282 9.192 21.1642 8.784C21.8122 8.376 22.5622 8.172 23.4142 8.172ZM23.3962 9.468C22.6402 9.468 22.0402 9.714 21.5962 10.206C21.1642 10.686 20.9062 11.358 20.8222 12.222H25.7362C25.7242 11.406 25.5322 10.746 25.1602 10.242C24.7882 9.726 24.2002 9.468 23.3962 9.468ZM33.5744 8.172C34.4024 8.172 35.1104 8.352 35.6984 8.712C36.2984 9.072 36.7544 9.582 37.0664 10.242C37.3904 10.89 37.5524 11.652 37.5524 12.528V13.482H30.9464C30.9704 14.574 31.2464 15.408 31.7744 15.984C32.3144 16.548 33.0644 16.83 34.0244 16.83C34.6364 16.83 35.1764 16.776 35.6444 16.668C36.1244 16.548 36.6164 16.38 37.1204 16.164V17.55C36.6284 17.766 36.1424 17.922 35.6624 18.018C35.1824 18.126 34.6124 18.18 33.9524 18.18C33.0404 18.18 32.2304 17.994 31.5224 17.622C30.8264 17.25 30.2804 16.698 29.8844 15.966C29.5004 15.222 29.3084 14.316 29.3084 13.248C29.3084 12.192 29.4824 11.286 29.8304 10.53C30.1904 9.774 30.6884 9.192 31.3244 8.784C31.9724 8.376 32.7224 8.172 33.5744 8.172ZM33.5564 9.468C32.8004 9.468 32.2004 9.714 31.7564 10.206C31.3244 10.686 31.0664 11.358 30.9824 12.222H35.8964C35.8844 11.406 35.6924 10.746 35.3204 10.242C34.9484 9.726 34.3604 9.468 33.5564 9.468ZM44.6525 8.172C45.8045 8.172 46.6745 8.454 47.2625 9.018C47.8505 9.57 48.1445 10.47 48.1445 11.718V18H46.5785V11.826C46.5785 10.278 45.8585 9.504 44.4185 9.504C43.3505 9.504 42.6125 9.804 42.2045 10.404C41.7965 11.004 41.5925 11.868 41.5925 12.996V18H40.0085V8.352H41.2865L41.5205 9.666H41.6105C41.9225 9.162 42.3545 8.79 42.9065 8.55C43.4585 8.298 44.0405 8.172 44.6525 8.172ZM50.0555 13.77V12.42H54.7355V13.77H50.0555ZM61.1537 9.576H58.7237V18H57.1397V9.576H55.4477V8.838L57.1397 8.298V7.74C57.1397 6.492 57.4157 5.598 57.9677 5.058C58.5197 4.506 59.2877 4.23 60.2717 4.23C60.6557 4.23 61.0037 4.266 61.3157 4.338C61.6397 4.398 61.9157 4.47 62.1437 4.554L61.7297 5.796C61.5377 5.736 61.3157 5.676 61.0637 5.616C60.8117 5.556 60.5537 5.526 60.2897 5.526C59.7617 5.526 59.3657 5.706 59.1017 6.066C58.8497 6.414 58.7237 6.966 58.7237 7.722V8.352H61.1537V9.576ZM64.4837 18H62.8997V4.32H64.4837V18Z" fill="#008B6A"/>
<g id="gis:network">
<path id="globe" d="M79.6011 1.69922C80.2904 2.69293 80.9186 3.72764 81.4822 4.79762C81.5652 4.78588 81.6488 4.77995 81.7326 4.77986C82.0706 4.77993 82.4018 4.87519 82.6882 5.05473C82.9746 5.23427 83.2047 5.49084 83.3521 5.79506C84.1534 5.72339 84.957 5.68096 85.7614 5.66786C86.2249 5.66066 86.6902 5.66354 87.1578 5.67554C85.3863 3.39194 82.6774 1.87514 79.6011 1.69922V1.69922ZM78.1424 1.71842C78.1071 1.7213 78.0716 1.72322 78.0363 1.72634C77.2263 3.38378 76.5927 5.02154 76.1398 6.63794C76.3341 6.75813 76.5037 6.91418 76.6395 7.09778C77.7313 6.76749 78.8391 6.49273 79.9587 6.27458C80.0185 5.92759 80.1787 5.60575 80.4195 5.3489C79.7722 4.12154 79.0155 2.91098 78.1424 1.71842V1.71842ZM76.5968 1.9637C74.0945 2.55978 71.9055 4.06983 70.4595 6.1973C71.5673 6.45136 72.664 6.75146 73.7468 7.09682C73.8927 6.90021 74.0771 6.73541 74.2889 6.61252C74.5006 6.48963 74.7352 6.41123 74.9782 6.3821C75.3802 4.91738 75.9198 3.4433 76.5968 1.9637ZM86.4663 6.86402C85.4626 6.85754 84.4695 6.89858 83.486 6.98402C83.3986 7.36351 83.1904 7.70441 82.8927 7.95554C83.2237 8.84553 83.5055 9.75306 83.7368 10.674C83.9719 10.699 84.1999 10.77 84.4075 10.8831C84.6152 10.9962 84.7986 11.1491 84.9471 11.3331C86.3384 10.9163 87.7553 10.5904 89.1889 10.3575C88.9957 9.14497 88.5862 7.97706 87.98 6.90938C87.4729 6.88298 86.9684 6.86714 86.4663 6.86378V6.86402ZM69.8154 7.2869C69.296 8.29813 68.9485 9.38869 68.787 10.5139C70.297 9.64706 71.8328 8.89058 73.395 8.24882C73.3948 8.24642 73.3946 8.24402 73.3945 8.24162C72.2348 7.87154 71.0401 7.55642 69.8154 7.2869V7.2869ZM80.1579 7.45106C79.09 7.65936 78.0332 7.92129 76.9916 8.23586C76.9908 8.25628 76.9897 8.27668 76.9882 8.29706C78.8484 9.08523 80.6353 10.0365 82.3278 11.1396C82.4064 11.0674 82.4913 11.0024 82.5814 10.9452C82.3619 10.0757 82.0946 9.21884 81.7808 8.37866C81.7647 8.37919 81.7487 8.37951 81.7326 8.37962C81.4111 8.37949 81.0956 8.29328 80.8187 8.12995C80.5418 7.96661 80.3138 7.73211 80.1582 7.45082L80.1579 7.45106ZM73.8411 9.3569C72.0913 10.0781 70.3717 10.951 68.6806 11.9671C68.6806 11.9784 68.6797 11.9892 68.6797 12.0005C68.6797 14.7283 69.734 17.2032 71.4555 19.0462C72.4374 18.1679 73.462 17.3385 74.5254 16.561C74.0742 14.3292 74.0086 12.0478 74.3043 9.73418C74.13 9.63524 73.9735 9.50789 73.8411 9.35738V9.3569ZM76.5102 9.39506C76.2337 9.69206 75.8649 9.88692 75.4638 9.94802C75.2113 11.9388 75.2473 13.8951 75.5857 15.8146C77.5436 14.4862 79.5966 13.3692 81.747 12.4752C81.747 12.4715 81.747 12.4677 81.747 12.4639C81.7472 12.3764 81.7537 12.2889 81.7666 12.2023C80.103 11.1095 78.3436 10.1699 76.5102 9.39506V9.39506ZM89.3084 11.5536C87.9701 11.7749 86.647 12.0801 85.347 12.4675C85.3465 12.7285 85.2892 12.9862 85.1792 13.2228C86.3218 14.1565 87.4017 15.1644 88.4118 16.2401C89.0117 14.9073 89.3212 13.4621 89.3197 12.0005C89.3197 11.8507 89.3149 11.7019 89.3084 11.5539V11.5536ZM82.1521 13.6006C79.9498 14.52 77.8534 15.6845 75.8547 17.082C76.2915 18.8431 76.9868 20.5723 77.9497 22.2677C78.2948 22.3025 78.6452 22.3203 78.9997 22.3203C80.3994 22.3203 81.7326 22.0419 82.9484 21.5393C83.3547 19.0399 83.4346 16.6023 83.1721 14.2241C82.771 14.1385 82.4111 13.9186 82.1521 13.6006V13.6006ZM84.3555 14.095C84.6027 16.315 84.5655 18.5806 84.2571 20.8851C85.7152 20.0223 86.9389 18.8145 87.8206 17.3679C86.747 16.1941 85.5888 15.1004 84.3555 14.0957V14.095ZM74.8251 17.8282C73.9647 18.4765 73.1313 19.1599 72.327 19.8766C73.5201 20.8897 74.9289 21.6168 76.4458 22.0025C75.7453 20.6355 75.2067 19.2425 74.8249 17.8282H74.8251Z" fill="#008B6A"/>
</g>
<path id="yd.com" d="M91.018 5.352H92.71L94.798 10.842C94.978 11.322 95.14 11.784 95.284 12.228C95.428 12.66 95.536 13.074 95.608 13.47H95.68C95.752 13.17 95.866 12.78 96.022 12.3C96.178 11.808 96.34 11.316 96.508 10.824L98.47 5.352H100.18L96.022 16.332C95.686 17.244 95.248 17.97 94.708 18.51C94.18 19.05 93.448 19.32 92.512 19.32C92.224 19.32 91.972 19.302 91.756 19.266C91.54 19.242 91.354 19.212 91.198 19.176V17.916C91.33 17.94 91.486 17.964 91.666 17.988C91.858 18.012 92.056 18.024 92.26 18.024C92.812 18.024 93.256 17.868 93.592 17.556C93.94 17.244 94.21 16.83 94.402 16.314L94.906 15.036L91.018 5.352ZM105.126 15.18C103.926 15.18 102.966 14.766 102.246 13.938C101.526 13.098 101.166 11.85 101.166 10.194C101.166 8.538 101.526 7.29 102.246 6.45C102.978 5.598 103.944 5.172 105.144 5.172C105.888 5.172 106.494 5.31 106.962 5.586C107.442 5.862 107.832 6.198 108.132 6.594H108.24C108.228 6.438 108.204 6.21 108.168 5.91C108.144 5.598 108.132 5.352 108.132 5.172V1.32H109.716V15H108.438L108.204 13.704H108.132C107.844 14.112 107.46 14.46 106.98 14.748C106.5 15.036 105.882 15.18 105.126 15.18ZM105.378 13.866C106.398 13.866 107.112 13.59 107.52 13.038C107.94 12.474 108.15 11.628 108.15 10.5V10.212C108.15 9.012 107.952 8.094 107.556 7.458C107.16 6.81 106.428 6.486 105.36 6.486C104.508 6.486 103.866 6.828 103.434 7.512C103.014 8.184 102.804 9.09 102.804 10.23C102.804 11.382 103.014 12.276 103.434 12.912C103.866 13.548 104.514 13.866 105.378 13.866ZM113.5 15.126C113.188 15.126 112.918 15.036 112.69 14.856C112.474 14.676 112.366 14.358 112.366 13.902C112.366 13.434 112.474 13.116 112.69 12.948C112.918 12.768 113.188 12.678 113.5 12.678C113.812 12.678 114.076 12.768 114.292 12.948C114.52 13.116 114.634 13.434 114.634 13.902C114.634 14.358 114.52 14.676 114.292 14.856C114.076 15.036 113.812 15.126 113.5 15.126ZM121.15 15.18C120.298 15.18 119.536 15.006 118.864 14.658C118.204 14.31 117.682 13.77 117.298 13.038C116.926 12.306 116.74 11.37 116.74 10.23C116.74 9.042 116.938 8.076 117.334 7.332C117.73 6.588 118.264 6.042 118.936 5.694C119.62 5.346 120.394 5.172 121.258 5.172C121.75 5.172 122.224 5.226 122.68 5.334C123.136 5.43 123.508 5.55 123.796 5.694L123.31 7.008C123.022 6.9 122.686 6.798 122.302 6.702C121.918 6.606 121.558 6.558 121.222 6.558C119.326 6.558 118.378 7.776 118.378 10.212C118.378 11.376 118.606 12.27 119.062 12.894C119.53 13.506 120.22 13.812 121.132 13.812C121.66 13.812 122.122 13.758 122.518 13.65C122.926 13.542 123.298 13.41 123.634 13.254V14.658C123.31 14.826 122.95 14.952 122.554 15.036C122.17 15.132 121.702 15.18 121.15 15.18ZM134.316 10.158C134.316 11.754 133.908 12.99 133.092 13.866C132.288 14.742 131.196 15.18 129.816 15.18C128.964 15.18 128.202 14.988 127.53 14.604C126.87 14.208 126.348 13.638 125.964 12.894C125.58 12.138 125.388 11.226 125.388 10.158C125.388 8.562 125.79 7.332 126.594 6.468C127.398 5.604 128.49 5.172 129.87 5.172C130.746 5.172 131.514 5.37 132.174 5.766C132.846 6.15 133.368 6.714 133.74 7.458C134.124 8.19 134.316 9.09 134.316 10.158ZM127.026 10.158C127.026 11.298 127.248 12.204 127.692 12.876C128.148 13.536 128.868 13.866 129.852 13.866C130.824 13.866 131.538 13.536 131.994 12.876C132.45 12.204 132.678 11.298 132.678 10.158C132.678 9.018 132.45 8.124 131.994 7.476C131.538 6.828 130.818 6.504 129.834 6.504C128.85 6.504 128.136 6.828 127.692 7.476C127.248 8.124 127.026 9.018 127.026 10.158ZM147.411 5.172C148.503 5.172 149.319 5.454 149.859 6.018C150.399 6.57 150.669 7.47 150.669 8.718V15H149.103V8.79C149.103 7.266 148.449 6.504 147.141 6.504C146.205 6.504 145.533 6.774 145.125 7.314C144.729 7.854 144.531 8.64 144.531 9.672V15H142.965V8.79C142.965 7.266 142.305 6.504 140.985 6.504C140.013 6.504 139.341 6.804 138.969 7.404C138.597 8.004 138.411 8.868 138.411 9.996V15H136.827V5.352H138.105L138.339 6.666H138.429C138.729 6.162 139.131 5.79 139.635 5.55C140.151 5.298 140.697 5.172 141.273 5.172C142.785 5.172 143.769 5.712 144.225 6.792H144.315C144.639 6.24 145.077 5.832 145.629 5.568C146.193 5.304 146.787 5.172 147.411 5.172Z" fill="#008B6A"/>
</g>
</svg>
